Coordinates
version=1
nRows=38
nColumns=12
inDegrees=yes

Units are S.I. units (second, meters, Newtons, ...)
Angles are in degrees

endheader
time	SC_y	SC_z	SC_x	AC_y	AC_z	AC_x	GH_y	GH_z	GH_yy	EL_x	PS_y
       0.0              -59.75          15.36          81.88          49.92           -4.5         -6.825         -39.22          30.23         -78.55          109.9          67.04
   0.03374              -59.75          15.36          81.87          49.92         -4.501         -6.822         -39.21          30.23         -78.54          109.9          67.04
   0.06748              -59.74          15.36          81.86          49.92         -4.503         -6.818         -39.19          30.23         -78.53          109.9          67.04
    0.1012              -59.74          15.36          81.85          49.92         -4.504         -6.814         -39.17          30.22         -78.52          109.9          67.03
     0.135              -59.74          15.35          81.84          49.92         -4.506          -6.81         -39.16          30.22         -78.51          109.9          67.03
    0.1687              -59.74          15.35          81.83          49.92         -4.508         -6.806         -39.14          30.22          -78.5          109.8          67.02
    0.2025              -59.74          15.35          81.81          49.92         -4.509         -6.802         -39.12          30.22         -78.49          109.8          67.01
    0.2362              -59.74          15.34           81.8          49.92         -4.512         -6.797         -39.09          30.21         -78.48          109.8          67.01
    0.2699              -59.74          15.34          81.79          49.92         -4.514         -6.791         -39.07          30.21         -78.47          109.8           67.0
    0.3037              -59.74          15.33          81.77          49.92         -4.516         -6.786         -39.05          30.21         -78.45          109.8          66.99
    0.3374              -59.74          15.33          81.75          49.92         -4.519          -6.78         -39.02           30.2         -78.44          109.8          66.99
    0.3712              -59.73          15.33          81.73          49.92         -4.521         -6.773         -38.99           30.2         -78.42          109.8          66.98
    0.4049              -59.73          15.32          81.71          49.92         -4.524         -6.766         -38.96          30.19          -78.4          109.7          66.97
    0.4386              -59.73          15.32          81.69          49.92         -4.527         -6.758         -38.92          30.19         -78.39          109.7          66.96
    0.4724              -59.73          15.31          81.67          49.92         -4.531          -6.75         -38.89          30.18         -78.37          109.7          66.95
    0.5061              -59.73           15.3          81.64          49.92         -4.534         -6.741         -38.85          30.18         -78.34          109.7          66.94
    0.5399              -59.72           15.3          81.62          49.92         -4.538         -6.732          -38.8          30.17         -78.32          109.6          66.93
    0.5736              -59.72          15.29          81.59          49.92         -4.543         -6.721         -38.75          30.16         -78.29          109.6          66.91
    0.6074              -59.72          15.28          81.56          49.92         -4.548         -6.709          -38.7          30.15         -78.27          109.6           66.9
    0.6411              -59.72          15.27          81.52          49.92         -4.553         -6.697         -38.65          30.14         -78.24          109.5          66.88
    0.6748              -59.71          15.26          81.48          49.92         -4.558         -6.683         -38.58          30.14          -78.2          109.5          66.87
    0.7086              -59.71          15.25          81.44          49.93         -4.565         -6.668         -38.51          30.13         -78.16          109.5          66.85
    0.7423              -59.71          15.24          81.39          49.93         -4.572         -6.651         -38.44          30.11         -78.12          109.4          66.83
    0.7761               -59.7          15.23          81.34          49.93         -4.579         -6.632         -38.35           30.1         -78.08          109.4           66.8
    0.8098               -59.7          15.21          81.28          49.93         -4.588         -6.611         -38.26          30.09         -78.03          109.3          66.78
    0.8436              -59.69           15.2          81.21          49.93         -4.598         -6.588         -38.16          30.07         -77.97          109.2          66.75
    0.8773              -59.68          15.18          81.14          49.93         -4.608         -6.562         -38.04          30.05         -77.91          109.2          66.72
     0.911              -59.68          15.16          81.06          49.93          -4.62         -6.533         -37.91          30.03         -77.84          109.1          66.68
    0.9448              -59.67          15.13          80.97          49.93         -4.634           -6.5         -37.76          30.01         -77.76          109.0          66.64
    0.9785              -59.66          15.11          80.86          49.94          -4.65         -6.463         -37.59          29.99         -77.66          108.9          66.59
     1.012              -59.65          15.08          80.74          49.94         -4.667          -6.42          -37.4          29.96         -77.56          108.8          66.54
     1.046              -59.64          15.04           80.6          49.94         -4.688         -6.371         -37.18          29.92         -77.44          108.6          66.48
      1.08              -59.63           15.0          80.44          49.94         -4.711         -6.314         -36.92          29.88          -77.3          108.5           66.4
     1.113              -59.61          14.96          80.26          49.95         -4.738         -6.248         -36.63          29.84         -77.14          108.3          66.32
     1.147              -59.59           14.9          80.04          49.95          -4.77         -6.171         -36.28          29.79         -76.95          108.1          66.23
     1.181              -59.57          14.84          79.78          49.95         -4.808          -6.08         -35.87          29.73         -76.73          107.8          66.11
     1.215              -59.55          14.76          79.48          49.96         -4.852         -5.972         -35.39          29.65         -76.47          107.5          65.98
     1.248              -59.52          14.67          79.11          49.96         -4.906         -5.843          -34.8          29.56         -76.15          107.2          65.82
